<svg width="180" height="48" viewBox="0 0 180 48" fill="none" xmlns="http://www.w3.org/2000/svg">
<g clip-path="url(#clip0_4_527)">
<path d="M42.5042 29.4076V15.6177H47.2436C48.8067 15.6177 49.9915 15.9202 50.7983 16.5504C51.605 17.1807 52.0336 18.1135 52.0336 19.3488C52.0336 20.5841 51.8571 20.5589 51.5294 21.0631C51.1764 21.5673 50.6974 21.9706 50.042 22.2479C50.7983 22.4496 51.3529 22.8278 51.7815 23.3824C52.1848 23.937 52.3865 24.6177 52.3865 25.3992C52.3865 26.6849 51.9831 27.6933 51.1512 28.374C50.3193 29.0799 49.1344 29.4076 47.5714 29.4076H42.5294H42.5042ZM44.8991 21.416H47.2436C47.9999 21.416 48.5798 21.2395 48.9831 20.9118C49.4117 20.5841 49.6134 20.1051 49.6134 19.4748C49.6134 18.8446 49.4117 18.2899 49.0336 17.9874C48.6554 17.6849 48.0504 17.5336 47.2184 17.5336H44.8991V21.416ZM44.8991 23.1807V27.4916H47.5714C48.3277 27.4916 48.9075 27.3152 49.3361 26.937C49.7647 26.5589 49.9663 26.0547 49.9663 25.374C49.9663 23.937 49.2352 23.2059 47.7731 23.1807H44.8991Z" fill="white"/>
<path d="M69.6807 24.9202C69.5547 26.3824 69.0001 27.5421 68.0421 28.374C67.0841 29.2059 65.8236 29.6093 64.2606 29.6093C62.6975 29.6093 62.1933 29.3572 61.3614 28.8278C60.5295 28.2984 59.874 27.5673 59.4202 26.6093C58.9665 25.6513 58.7396 24.5421 58.7144 23.2564V21.9706C58.7144 20.6597 58.9412 19.5253 59.395 18.5169C59.8488 17.5085 60.5295 16.7522 61.3866 16.2227C62.2438 15.6933 63.2522 15.416 64.3866 15.416C65.5211 15.416 67.1345 15.8194 68.0673 16.6513C69.0001 17.4832 69.5295 18.6429 69.6807 20.1555H67.2858C67.1597 19.1723 66.8824 18.4412 66.4286 18.0127C65.9749 17.5841 65.2942 17.3572 64.3866 17.3572C63.4791 17.3572 62.5463 17.7353 61.9917 18.4916C61.437 19.2479 61.1345 20.3824 61.1345 21.8446V23.0547C61.1345 24.5421 61.4118 25.6765 61.9412 26.4832C62.4707 27.29 63.2522 27.6681 64.2858 27.6681C65.3194 27.6681 65.9244 27.4664 66.4034 27.0379C66.8824 26.6093 67.1849 25.9034 67.311 24.9202H69.706H69.6807Z" fill="white"/>
<path d="M82.6891 22.8528C82.6891 24.2142 82.4622 25.399 81.9832 26.4074C81.5042 27.4158 80.8488 28.2226 79.9664 28.752C79.0841 29.2814 78.1009 29.5587 76.9664 29.5587C75.8319 29.5587 74.8488 29.2814 73.9664 28.752C73.0841 28.2226 72.4286 27.4158 71.9496 26.4074C71.4706 25.399 71.2185 24.2394 71.2185 22.9032V22.1217C71.2185 20.7856 71.4706 19.5755 71.9244 18.5671C72.4034 17.5335 73.084 16.752 73.9412 16.1973C74.7983 15.6427 75.8067 15.3906 76.9412 15.3906C78.0757 15.3906 79.0588 15.6679 79.9412 16.1973C80.8236 16.7268 81.479 17.5083 81.958 18.5167C82.437 19.5251 82.6639 20.71 82.6891 22.0461V22.8276V22.8528ZM80.2941 22.1469C80.2941 20.6091 80.0168 19.4494 79.437 18.6427C78.8572 17.836 78.0504 17.4326 76.9664 17.4326C75.8824 17.4326 75.1261 17.836 74.5462 18.6427C73.9664 19.4494 73.6639 20.6091 73.6639 22.0965V22.9032C73.6639 24.4158 73.9664 25.6007 74.5462 26.4074C75.1261 27.2394 75.958 27.6427 77.0168 27.6427C78.0756 27.6427 78.9076 27.2394 79.4622 26.4326C80.0168 25.6259 80.3193 24.441 80.3193 22.878V22.1469H80.2941Z" fill="white"/>
<path d="M95.9243 29.4076H93.5294L87.3781 19.6261V29.4076H84.9832V15.6177H87.3781L93.5546 25.4496V15.6177H95.9243V29.4076Z" fill="white"/>
<path d="M105.857 25.853C105.857 25.2479 105.63 24.769 105.227 24.4412C104.798 24.1135 104.042 23.7858 102.907 23.458C101.798 23.1303 100.916 22.7522 100.26 22.3488C98.9999 21.5673 98.3697 20.5337 98.3697 19.2479C98.3697 17.9622 98.8235 17.2059 99.731 16.5C100.639 15.7942 101.823 15.416 103.26 15.416C104.697 15.416 105.076 15.5925 105.832 15.9454C106.588 16.2984 107.168 16.8026 107.597 17.458C108.025 18.1135 108.252 18.8446 108.252 19.6261H105.857C105.857 18.895 105.63 18.3404 105.176 17.937C104.723 17.5337 104.067 17.332 103.235 17.332C102.403 17.332 101.849 17.5085 101.42 17.8362C100.992 18.1639 100.765 18.6429 100.765 19.2479C100.765 19.853 100.992 20.1807 101.471 20.5085C101.95 20.8362 102.706 21.1639 103.79 21.4916C104.874 21.8194 105.731 22.1723 106.386 22.5757C107.042 22.979 107.521 23.458 107.823 23.9874C108.126 24.5169 108.277 25.1219 108.277 25.8278C108.277 26.9874 107.823 27.895 106.966 28.5757C106.084 29.2564 104.899 29.5841 103.386 29.5841C101.874 29.5841 101.471 29.4076 100.639 29.0295C99.8066 28.6513 99.1512 28.1471 98.6722 27.4916C98.2184 26.8362 97.9663 26.0799 97.9663 25.2227H100.361C100.361 26.0043 100.613 26.6093 101.143 27.0379C101.672 27.4664 102.403 27.6933 103.361 27.6933C104.319 27.6933 104.823 27.5169 105.252 27.1891C105.681 26.8614 105.882 26.4076 105.882 25.853H105.857Z" fill="white"/>
<path d="M120.529 15.5923V24.8192C120.529 26.2814 120.05 27.441 119.118 28.2982C118.185 29.1553 116.924 29.5839 115.361 29.5839C113.798 29.5839 112.538 29.1553 111.605 28.3234C110.672 27.4914 110.219 26.3066 110.219 24.8192V15.6175H112.613V24.8444C112.613 25.7772 112.84 26.4578 113.319 26.962C113.798 27.4662 114.479 27.6931 115.387 27.6931C117.227 27.6931 118.16 26.7099 118.16 24.7688V15.6175H120.555L120.529 15.5923Z" fill="white"/>
<path d="M125.546 27.4916H131.823V29.4076H123.151V15.6177H125.546V27.4916Z" fill="white"/>
<path d="M141.681 17.5335H137.37V29.4074H135V17.5335H130.74V15.5923H141.681V17.5335Z" fill="white"/>
<path d="M145.815 29.4076H143.42V15.6177H145.815V29.4076Z" fill="white"/>
<path d="M159.58 29.4076H157.185L151.034 19.6261V29.4076H148.639V15.6177H151.034L157.21 25.4496V15.6177H159.58V29.4076Z" fill="white"/>
<path d="M172.865 27.6177C172.361 28.2732 171.681 28.7522 170.798 29.1051C169.916 29.458 168.907 29.6093 167.773 29.6093C166.638 29.6093 165.58 29.3572 164.697 28.8278C163.815 28.2984 163.109 27.5421 162.63 26.5841C162.151 25.6261 161.899 24.4664 161.874 23.1555V22.0715C161.874 19.979 162.378 18.3656 163.361 17.1807C164.37 15.9958 165.756 15.416 167.546 15.416C169.336 15.416 170.294 15.7942 171.202 16.5505C172.109 17.3068 172.638 18.416 172.84 19.8278H170.496C170.244 18.1639 169.26 17.332 167.596 17.332C165.933 17.332 165.706 17.7101 165.151 18.4916C164.596 19.2732 164.294 20.4076 164.294 21.895V22.9538C164.294 24.4412 164.596 25.6009 165.227 26.4328C165.857 27.2648 166.739 27.6681 167.849 27.6681C168.958 27.6681 169.941 27.3908 170.47 26.8362V24.1387H167.622V22.3236H172.865V27.6177Z" fill="white"/>
<path d="M42.5042 33.6176C42.5042 33.4411 42.5546 33.2898 42.6806 33.1638C42.8067 33.0377 42.9579 32.9873 43.1848 32.9873C43.4117 32.9873 43.563 33.0377 43.689 33.1638C43.8151 33.2898 43.8655 33.4411 43.8655 33.6176C43.8655 33.794 43.8151 33.9453 43.689 34.0713C43.563 34.1974 43.4117 34.2478 43.1848 34.2478C42.9579 34.2478 42.8067 34.1974 42.6806 34.0713C42.5546 33.9453 42.5042 33.794 42.5042 33.6176ZM43.7647 40.3234H42.5546V35.0041H43.7647V40.3234Z" fill="white"/>
<path d="M47.9749 35.0042V35.6092C48.4034 35.1302 48.9328 34.9033 49.5631 34.9033C50.6723 34.9033 51.227 35.5336 51.2522 36.8193V40.3487H50.0421V36.8949C50.0421 36.5672 49.9664 36.3151 49.8152 36.1386C49.6639 35.9874 49.437 35.8865 49.1093 35.8865C48.6303 35.8865 48.2774 36.1134 48.0253 36.542V40.3235H46.8152V35.0042H47.9496H47.9749Z" fill="white"/>
<path d="M55.4116 35.0042V35.6092C55.8402 35.1302 56.3696 34.9033 56.9999 34.9033C58.1091 34.9033 58.6637 35.5336 58.6889 36.8193V40.3487H57.4788V36.8949C57.4788 36.5672 57.4032 36.3151 57.252 36.1386C57.1007 35.9874 56.8738 35.8865 56.5461 35.8865C56.0671 35.8865 55.7141 36.1134 55.462 36.542V40.3235H54.252V35.0042H55.3864H55.4116Z" fill="white"/>
<path d="M61.4874 37.6257C61.4874 37.0963 61.5882 36.6425 61.7899 36.2139C61.9916 35.7854 62.2941 35.4828 62.6722 35.256C63.0504 35.0291 63.479 34.9282 63.958 34.9282C64.6638 34.9282 65.2689 35.1551 65.6975 35.6341C66.126 36.1131 66.3781 36.7181 66.4285 37.4744V37.7518C66.4285 38.2812 66.3277 38.7349 66.126 39.1635C65.9243 39.5921 65.6218 39.8946 65.2689 40.1215C64.9159 40.3484 64.4622 40.4744 63.958 40.4744C63.2017 40.4744 62.5966 40.2223 62.1428 39.7181C61.689 39.2139 61.4622 38.5585 61.4622 37.7265V37.6761L61.4874 37.6257ZM62.6722 37.7265C62.6722 38.2812 62.7731 38.7097 63.0252 39.0123C63.2773 39.3148 63.5546 39.4912 63.9832 39.4912C64.4117 39.4912 64.689 39.34 64.9159 39.0123C65.1428 38.7097 65.2437 38.2307 65.2437 37.6257C65.2437 37.0207 65.1176 36.6677 64.8907 36.34C64.6638 36.0123 64.3361 35.861 63.958 35.861C63.5798 35.861 63.2521 36.0123 63.0252 36.34C62.7983 36.6425 62.6722 37.1215 62.6722 37.7265Z" fill="white"/>
<path d="M71.0419 38.8106L72.1763 35.0039H73.4116L71.5713 40.3232H70.5377L68.6721 35.0039H69.9074L71.0419 38.8106Z" fill="white"/>
<path d="M79.0841 40.3235C79.0337 40.2226 78.9832 40.0462 78.958 39.8193C78.5799 40.2226 78.1009 40.4243 77.5715 40.4243C77.0421 40.4243 76.5883 40.2731 76.2605 39.9705C75.9328 39.668 75.7563 39.2899 75.7563 38.8361C75.7563 38.3823 75.958 37.8277 76.3866 37.5252C76.8152 37.2226 77.4202 37.0714 78.2017 37.0714H78.9328V36.7184C78.9328 36.4411 78.8572 36.2142 78.7059 36.063C78.5547 35.9117 78.3278 35.8109 78 35.8109C77.6723 35.8109 77.4958 35.8865 77.3194 36.0126C77.1429 36.1386 77.0673 36.3151 77.0673 36.542H75.8572C75.8572 36.2395 75.958 35.9874 76.1345 35.7353C76.311 35.4831 76.5883 35.2815 76.916 35.1302C77.2437 34.9789 77.6219 34.9033 78.0253 34.9033C78.6555 34.9033 79.1597 35.0546 79.5126 35.3823C79.8656 35.71 80.0673 36.1386 80.0925 36.6932V39.0882C80.0925 39.5672 80.1681 39.9453 80.2942 40.2479V40.3235H79.0841ZM77.7732 39.4663C78 39.4663 78.2269 39.4159 78.4286 39.2899C78.6303 39.1638 78.8068 39.0126 78.9076 38.8361V37.8277H78.2521C77.7984 37.8277 77.4706 37.9033 77.2437 38.0546C77.0169 38.2058 76.916 38.4327 76.916 38.71C76.916 38.9874 76.9916 39.1134 77.1429 39.2647C77.2942 39.4159 77.4958 39.4663 77.7479 39.4663H77.7732Z" fill="white"/>
<path d="M84.6554 33.6929V34.9786H85.5881V35.8609H84.6554V38.8357C84.6554 39.0374 84.7058 39.1887 84.7814 39.2895C84.857 39.3903 85.0083 39.4156 85.21 39.4156C85.4117 39.4156 85.4873 39.4156 85.6386 39.3651V40.2979C85.3612 40.3735 85.1091 40.3988 84.857 40.3988C83.9495 40.3988 83.4705 39.8945 83.4705 38.8861V35.8609H82.5881V34.9786H83.4705V33.6929H84.6554Z" fill="white"/>
<path d="M88.3108 33.6176C88.3108 33.4411 88.3612 33.2898 88.4873 33.1638C88.6133 33.0377 88.7646 32.9873 88.9915 32.9873C89.2184 32.9873 89.3696 33.0377 89.4957 33.1638C89.6217 33.2898 89.6721 33.4411 89.6721 33.6176C89.6721 33.794 89.6217 33.9453 89.4957 34.0713C89.3696 34.1974 89.2184 34.2478 88.9915 34.2478C88.7646 34.2478 88.6133 34.1974 88.4873 34.0713C88.3612 33.9453 88.3108 33.794 88.3108 33.6176ZM89.5965 40.3234H88.3864V35.0041H89.5965V40.3234Z" fill="white"/>
<path d="M92.4705 37.6257C92.4705 37.0963 92.5714 36.6425 92.773 36.2139C92.9747 35.7854 93.2772 35.4828 93.6554 35.256C94.0335 35.0291 94.4621 34.9282 94.9411 34.9282C95.6722 34.9282 96.252 35.1551 96.6806 35.6341C97.1092 36.1131 97.3613 36.7181 97.4117 37.4744V37.7518C97.4117 38.2812 97.3109 38.7349 97.1092 39.1635C96.9075 39.5921 96.605 39.8946 96.252 40.1215C95.8991 40.3484 95.4453 40.4744 94.9411 40.4744C94.1848 40.4744 93.5798 40.2223 93.126 39.7181C92.6722 39.2139 92.4453 38.5585 92.4453 37.7265V37.6761L92.4705 37.6257ZM93.6554 37.7265C93.6554 38.2812 93.7814 38.7097 94.0083 39.0123C94.2352 39.3148 94.5377 39.4912 94.9663 39.4912C95.3949 39.4912 95.6974 39.34 95.8991 39.0123C96.126 38.7097 96.2268 38.2307 96.2268 37.6257C96.2268 37.0207 96.1008 36.6677 95.8739 36.34C95.647 36.0123 95.3193 35.861 94.9411 35.861C94.563 35.861 94.2352 36.0123 94.0083 36.34C93.7814 36.6677 93.6554 37.1215 93.6554 37.7265Z" fill="white"/>
<path d="M101.344 35.0042V35.6092C101.773 35.1302 102.302 34.9033 102.933 34.9033C104.042 34.9033 104.597 35.5336 104.622 36.8193V40.3487H103.412V36.8949C103.412 36.5672 103.336 36.3151 103.185 36.1386C103.034 35.9874 102.807 35.8865 102.479 35.8865C102 35.8865 101.647 36.1134 101.395 36.542V40.3235H100.185V35.0042H101.319H101.344Z" fill="white"/>
<path d="M111.958 33.6176C111.958 33.4411 112.008 33.2898 112.134 33.1638C112.261 33.0377 112.412 32.9873 112.639 32.9873C112.866 32.9873 113.017 33.0377 113.143 33.1638C113.269 33.2898 113.319 33.4411 113.319 33.6176C113.319 33.794 113.269 33.9453 113.143 34.0713C113.017 34.1974 112.866 34.2478 112.639 34.2478C112.412 34.2478 112.261 34.1974 112.134 34.0713C112.008 33.9453 111.958 33.794 111.958 33.6176ZM113.244 40.3234H112.034V35.0041H113.244V40.3234Z" fill="white"/>
<path d="M117.454 35.0042V35.6092C117.882 35.1302 118.412 34.9033 119.042 34.9033C120.151 34.9033 120.706 35.5336 120.731 36.8193V40.3487H119.521V36.8949C119.521 36.5672 119.445 36.3151 119.294 36.1386C119.143 35.9621 118.916 35.8865 118.588 35.8865C118.109 35.8865 117.756 36.1134 117.504 36.542V40.3235H116.294V35.0042H117.428H117.454Z" fill="white"/>
<path d="M125.269 33.6929V34.9786H126.202V35.8609H125.269V38.8357C125.269 39.0374 125.319 39.1887 125.395 39.2895C125.471 39.3903 125.622 39.4156 125.824 39.4156C126.025 39.4156 126.101 39.4156 126.252 39.3651V40.2979C125.975 40.3735 125.723 40.3988 125.471 40.3988C124.563 40.3988 124.084 39.8945 124.084 38.8861V35.8609H123.202V34.9786H124.084V33.6929H125.269Z" fill="white"/>
<path d="M131.269 40.4243C130.513 40.4243 129.882 40.1974 129.429 39.7184C128.975 39.2395 128.723 38.6092 128.723 37.8025V37.6512C128.723 37.1218 128.823 36.6428 129.025 36.2395C129.227 35.8109 129.529 35.5084 129.882 35.2563C130.235 35.0042 130.664 34.9033 131.118 34.9033C131.849 34.9033 132.403 35.1302 132.807 35.6092C133.21 36.0882 133.387 36.7184 133.387 37.5756V38.0546H129.908C129.933 38.5084 130.084 38.8361 130.361 39.0882C130.639 39.3403 130.941 39.4663 131.345 39.4663C131.748 39.4663 132.353 39.2395 132.681 38.8109L133.336 39.4159C133.134 39.7437 132.832 39.9705 132.479 40.147C132.126 40.3235 131.723 40.4243 131.269 40.4243ZM131.118 35.8613C130.79 35.8613 130.538 35.9874 130.311 36.2142C130.084 36.4411 129.983 36.7689 129.933 37.1722H132.202V37.0714C132.202 36.668 132.076 36.3655 131.874 36.1638C131.672 35.9621 131.42 35.8613 131.092 35.8613H131.118Z" fill="white"/>
<path d="M135.933 37.626C135.933 36.7941 136.134 36.1386 136.513 35.6344C136.891 35.1302 137.42 34.9033 138.05 34.9033C138.681 34.9033 139.134 35.105 139.487 35.5336L139.538 35.0042H140.622V40.1722C140.622 40.8781 140.395 41.4327 139.966 41.8361C139.538 42.2395 138.958 42.4411 138.202 42.4411C137.445 42.4411 137.42 42.3655 137.067 42.189C136.714 42.0126 136.412 41.8109 136.21 41.5588L136.765 40.8277C137.143 41.2563 137.571 41.4832 138.126 41.4832C138.681 41.4832 138.832 41.3823 139.059 41.1554C139.286 40.9285 139.412 40.626 139.412 40.1974V39.8445C139.059 40.2226 138.605 40.4243 138.025 40.4243C137.445 40.4243 136.891 40.1722 136.487 39.6932C136.084 39.2142 135.882 38.5084 135.882 37.626H135.933ZM137.118 37.7268C137.118 38.2563 137.218 38.6848 137.445 38.9874C137.672 39.2899 137.975 39.4411 138.353 39.4411C138.731 39.4411 139.185 39.2395 139.437 38.8109V36.4663C139.21 36.063 138.857 35.8613 138.378 35.8613C137.899 35.8613 137.672 36.0126 137.471 36.3403C137.269 36.668 137.143 37.1218 137.143 37.7268H137.118Z" fill="white"/>
<path d="M146.445 36.088C146.294 36.0628 146.118 36.0376 145.966 36.0376C145.412 36.0376 145.059 36.2393 144.857 36.6678V40.2981H143.647V34.9788H144.781V35.5838C145.109 35.13 145.487 34.8779 146.017 34.8779C146.546 34.8779 146.319 34.8779 146.445 34.9536V36.088Z" fill="white"/>
<path d="M152.042 40.3235C151.992 40.2226 151.941 40.0462 151.916 39.8193C151.538 40.2226 151.059 40.4243 150.529 40.4243C150 40.4243 149.571 40.2731 149.219 39.9705C148.866 39.668 148.714 39.2899 148.714 38.8361C148.714 38.3823 148.916 37.8277 149.345 37.5252C149.773 37.2226 150.378 37.0714 151.16 37.0714H151.891V36.7184C151.891 36.4411 151.815 36.2142 151.664 36.063C151.513 35.9117 151.286 35.8109 150.958 35.8109C150.63 35.8109 150.454 35.8865 150.277 36.0126C150.101 36.1386 150.025 36.3151 150.025 36.542H148.815C148.815 36.2395 148.916 35.9874 149.118 35.7353C149.319 35.4831 149.571 35.2815 149.899 35.1302C150.227 34.9789 150.605 34.9033 151.008 34.9033C151.639 34.9033 152.143 35.0546 152.496 35.3823C152.849 35.71 153.05 36.1386 153.076 36.6932V39.0882C153.076 39.5672 153.151 39.9453 153.277 40.2479V40.3235H152.067H152.042ZM150.731 39.4663C150.958 39.4663 151.185 39.4159 151.412 39.2899C151.639 39.1638 151.79 39.0126 151.891 38.8361V37.8277H151.235C150.782 37.8277 150.454 37.9033 150.227 38.0546C150 38.2058 149.899 38.4327 149.899 38.71C149.899 38.9874 149.975 39.1134 150.126 39.2647C150.277 39.4159 150.479 39.4663 150.731 39.4663Z" fill="white"/>
<path d="M157.613 33.6929V34.9786H158.546V35.8609H157.613V38.8357C157.613 39.0374 157.664 39.1887 157.739 39.2895C157.815 39.3903 157.966 39.4156 158.168 39.4156C158.37 39.4156 158.445 39.4156 158.597 39.3651V40.2979C158.319 40.3735 158.067 40.3988 157.815 40.3988C156.882 40.3988 156.428 39.8945 156.428 38.8861V35.8609H155.546V34.9786H156.428V33.6929H157.613Z" fill="white"/>
<path d="M163.613 40.4243C162.857 40.4243 162.227 40.1974 161.773 39.7184C161.319 39.2395 161.067 38.6092 161.067 37.8025V37.6512C161.067 37.1218 161.168 36.6428 161.37 36.2395C161.571 35.8361 161.874 35.5084 162.227 35.2563C162.58 35.0042 163.008 34.9033 163.462 34.9033C164.193 34.9033 164.748 35.1302 165.151 35.6092C165.555 36.0882 165.731 36.7184 165.731 37.5756V38.0546H162.252C162.277 38.5084 162.428 38.8361 162.706 39.0882C162.983 39.3403 163.286 39.4663 163.689 39.4663C164.092 39.4663 164.697 39.2395 165.025 38.8109L165.681 39.4159C165.479 39.7437 165.176 39.9705 164.823 40.147C164.47 40.3235 164.067 40.4243 163.613 40.4243ZM163.487 35.8613C163.16 35.8613 162.907 35.9874 162.681 36.2142C162.454 36.4411 162.353 36.7689 162.302 37.1722H164.571V37.0714C164.571 36.668 164.445 36.3655 164.244 36.1638C164.042 35.9621 163.79 35.8613 163.462 35.8613H163.487Z" fill="white"/>
<path d="M168.277 37.6258C168.277 36.8191 168.479 36.1384 168.857 35.6594C169.235 35.1804 169.74 34.9031 170.395 34.9031C171.05 34.9031 171.403 35.1048 171.756 35.4829V32.7603H172.966V40.3233H171.882L171.832 39.7687C171.479 40.1972 171 40.4241 170.395 40.4241C169.79 40.4241 169.261 40.172 168.882 39.6678C168.504 39.1636 168.303 38.4829 168.303 37.6258H168.277ZM169.462 37.7266C169.462 38.2561 169.563 38.6846 169.765 38.9871C169.966 39.2897 170.269 39.4409 170.647 39.4409C171.025 39.4409 171.504 39.214 171.731 38.7855V36.5166C171.504 36.088 171.151 35.8863 170.672 35.8863C170.193 35.8863 169.992 36.0376 169.79 36.3401C169.588 36.6426 169.462 37.0964 169.462 37.7266Z" fill="white"/>
<path d="M27.2267 32.2563C27.2267 33.6176 26.1174 34.7268 24.7561 34.7268H17.8737L15.1763 40.3235H33.4536V29.584H27.2267V32.2815V32.2563Z" fill="#EF7C00"/>
<path d="M11.9495 32.2561V23.5082C11.9495 22.1469 13.0587 21.0376 14.4201 21.0376H21.0251L23.7226 15.441H11.8991V5.15527H5.7478V38.0796C5.7478 39.3149 6.731 40.2981 7.96629 40.2981H11.7478L14.4453 34.7015H14.1932C12.8318 34.7015 11.9747 33.5923 11.9747 32.2309L11.9495 32.2561Z" fill="#EF7C00"/>
<path d="M27.1511 15.4409L24.4536 21.0376H24.7561C26.1175 21.0376 27.2267 22.1468 27.2267 23.5081V26.2056H33.4536V15.4661H27.1511V15.4409Z" fill="#EF7C00"/>
</g>
<defs>
<clipPath id="clip0_4_527">
<rect width="180" height="46.563" fill="white" transform="translate(0 0.718262)"/>
</clipPath>
</defs>
</svg>
