<svg width="20" height="20" viewBox="0 0 20 20" fill="none" xmlns="http://www.w3.org/2000/svg">
<path d="M16.0666 13.0915H18.1249C18.1249 13.0915 19.5333 10.8331 18.1249 9.3998C17.7706 8.99068 17.2995 8.69987 16.7749 8.56647H2.64158C0.874916 9.16647 1.29158 13.0915 1.29158 13.0915H3.04992M16.0666 13.0915C15.9645 12.6023 15.6971 12.1631 15.3094 11.8479C14.9216 11.5327 14.4371 11.3606 13.9374 11.3606C13.4377 11.3606 12.9532 11.5327 12.5654 11.8479C12.1777 12.1631 11.9103 12.6023 11.8082 13.0915H7.30825M16.0666 13.0915C16.0834 13.2354 16.0834 13.3808 16.0666 13.5248C16.085 13.8212 16.0424 14.1182 15.9417 14.3975C15.8409 14.6769 15.684 14.9326 15.4806 15.149C15.2772 15.3654 15.0316 15.5378 14.7591 15.6557C14.4865 15.7736 14.1927 15.8344 13.8957 15.8344C13.5988 15.8344 13.305 15.7736 13.0324 15.6557C12.7599 15.5378 12.5143 15.3654 12.3109 15.149C12.1075 14.9326 11.9506 14.6769 11.8498 14.3975C11.7491 14.1182 11.7065 13.8212 11.7249 13.5248C11.7262 13.3794 11.7401 13.2344 11.7666 13.0915C11.8686 12.6023 12.136 12.1631 12.5238 11.8479C12.9115 11.5327 13.396 11.3606 13.8957 11.3606C14.3955 11.3606 14.88 11.5327 15.2677 11.8479C15.6555 12.1631 15.9229 12.6023 16.0249 13.0915H16.0666ZM7.30825 13.0915C7.2062 12.6023 6.93881 12.1631 6.55105 11.8479C6.16329 11.5327 5.67881 11.3606 5.17908 11.3606C4.67936 11.3606 4.19488 11.5327 3.80712 11.8479C3.41935 12.1631 3.15196 12.6023 3.04992 13.0915M7.30825 13.0915C7.33471 13.2344 7.34865 13.3794 7.34992 13.5248C7.36829 13.8212 7.32577 14.1182 7.22499 14.3975C7.1242 14.6769 6.96728 14.9326 6.7639 15.149C6.56052 15.3654 6.31498 15.5378 6.04242 15.6557C5.76986 15.7736 5.47604 15.8344 5.17908 15.8344C4.88212 15.8344 4.58831 15.7736 4.31575 15.6557C4.04318 15.5378 3.79765 15.3654 3.59426 15.149C3.39088 14.9326 3.23396 14.6769 3.13318 14.3975C3.03239 14.1182 2.98988 13.8212 3.00825 13.5248C3.00519 13.3792 3.01917 13.2338 3.04992 13.0915M8.86658 8.56647V4.2998M15.7499 8.56647H2.88325C2.95825 7.20814 3.26658 5.43314 4.24992 5.0498C7.55378 4.05046 11.0794 4.05046 14.3832 5.0498C15.3332 5.41647 15.6499 7.2498 15.7499 8.56647Z" stroke="currentColor" stroke-width="1.5" stroke-linecap="round" stroke-linejoin="round"/>
</svg>
