<svg width="20" height="20" viewBox="0 0 20 20" fill="none" xmlns="http://www.w3.org/2000/svg">
<g clip-path="url(#clip0_2246_804)">
<path d="M-0.175 3C-0.632187 3 -1 3.3576 -1 3.80208C-1 4.24657 -0.632187 4.60417 -0.175 4.60417H0.1V16.3681H-0.175C-0.632187 16.3681 -1 16.7257 -1 17.1701C-1 17.6146 -0.632187 17.9722 -0.175 17.9722H0.925H19.075H20.175C20.6322 17.9722 21 17.6146 21 17.1701C21 16.7257 20.6322 16.3681 20.175 16.3681H19.9V4.60417H20.175C20.6322 4.60417 21 4.24657 21 3.80208C21 3.3576 20.6322 3 20.175 3H19.075H0.925H-0.175ZM1.75 16.3681V4.60417H18.25V16.3681H1.75ZM5.05 7.01042C5.05 6.56593 4.68219 6.20833 4.225 6.20833C3.76781 6.20833 3.4 6.56593 3.4 7.01042V13.9618C3.4 14.4063 3.76781 14.7639 4.225 14.7639C4.68219 14.7639 5.05 14.4063 5.05 13.9618V7.01042ZM8.9 7.01042C8.9 6.56593 8.53219 6.20833 8.075 6.20833C7.61781 6.20833 7.25 6.56593 7.25 7.01042V13.9618C7.25 14.4063 7.61781 14.7639 8.075 14.7639C8.53219 14.7639 8.9 14.4063 8.9 13.9618V7.01042ZM12.75 7.01042C12.75 6.56593 12.3822 6.20833 11.925 6.20833C11.4678 6.20833 11.1 6.56593 11.1 7.01042V13.9618C11.1 14.4063 11.4678 14.7639 11.925 14.7639C12.3822 14.7639 12.75 14.4063 12.75 13.9618V7.01042ZM16.6 7.01042C16.6 6.56593 16.2322 6.20833 15.775 6.20833C15.3178 6.20833 14.95 6.56593 14.95 7.01042V13.9618C14.95 14.4063 15.3178 14.7639 15.775 14.7639C16.2322 14.7639 16.6 14.4063 16.6 13.9618V7.01042Z" fill="currentColor"/>
</g>
<defs>
<clipPath id="clip0_2246_804">
<rect width="20" height="20" fill="white"/>
</clipPath>
</defs>
</svg>
