<svg width="24" height="25" viewBox="0 0 24 25" fill="none" xmlns="http://www.w3.org/2000/svg">
<g clip-path="url(#clip0_24_4028)">
<path d="M24 12.7632C24 6.13576 18.6274 0.763184 12 0.763184C5.37258 0.763184 0 6.13576 0 12.7632C0 18.7526 4.3882 23.7172 10.125 24.6174V16.2319H7.07812V12.7632H10.125V10.1194C10.125 7.11193 11.9166 5.45068 14.6576 5.45068C15.9701 5.45068 17.3438 5.68506 17.3438 5.68506V8.63818H15.8306C14.34 8.63818 13.875 9.56326 13.875 10.5132V12.7632H17.2031L16.6711 16.2319H13.875V24.6174C19.6118 23.7172 24 18.7526 24 12.7632Z" fill="currentColor"/>
</g>
<defs>
<clipPath id="clip0_24_4028">
<rect y="0.763184" width="24" height="24" rx="12" fill="white"/>
</clipPath>
</defs>
</svg>
