<svg width="22" height="23" viewBox="0 0 22 23" fill="none" xmlns="http://www.w3.org/2000/svg">
  <path d="M16.1535 0.888428H5.38448C2.42328 0.888428 0 3.33547 0 6.3257V17.2008C0 20.1902 2.42328 22.6381 5.38448 22.6381H16.1535C19.1147 22.6381 21.5379 20.1902 21.5379 17.2008V6.3257C21.5379 3.33547 19.1147 0.888428 16.1535 0.888428ZM19.743 17.2008C19.743 19.199 18.1334 20.8255 16.1535 20.8255H5.38448C3.40542 20.8255 1.79492 19.199 1.79492 17.2008V6.3257C1.79492 4.32697 3.40542 2.70094 5.38448 2.70094H16.1535C18.1334 2.70094 19.743 4.32697 19.743 6.3257V17.2008Z" fill="currentColor"/>
  <path d="M16.603 7.23194C17.3464 7.23194 17.9491 6.62335 17.9491 5.87262C17.9491 5.12189 17.3464 4.51331 16.603 4.51331C15.8595 4.51331 15.2568 5.12189 15.2568 5.87262C15.2568 6.62335 15.8595 7.23194 16.603 7.23194Z" fill="currentColor"/>
  <path d="M10.7688 6.32581C7.79436 6.32581 5.38428 8.75978 5.38428 11.7631C5.38428 14.7653 7.79436 17.2009 10.7688 17.2009C13.7423 17.2009 16.1532 14.7653 16.1532 11.7631C16.1532 8.75978 13.7423 6.32581 10.7688 6.32581ZM10.7688 15.3884C8.78644 15.3884 7.17919 13.7654 7.17919 11.7631C7.17919 9.76079 8.78644 8.13832 10.7688 8.13832C12.7511 8.13832 14.3583 9.76079 14.3583 11.7631C14.3583 13.7654 12.7511 15.3884 10.7688 15.3884Z" fill="currentColor"/>
</svg>
