<svg width="18" height="18" viewBox="0 0 18 18" fill="none" xmlns="http://www.w3.org/2000/svg">
<path d="M10.875 7.125V3.375M10.875 7.125L14.625 7.125M10.875 7.125L15.875 2.125M13.375 17.125C6.47144 17.125 0.875 11.5286 0.875 4.625V2.75C0.875 1.71447 1.71447 0.875 2.75 0.875H3.89302C4.32321 0.875 4.69819 1.16778 4.80253 1.58512L5.72403 5.27111C5.81551 5.63704 5.67878 6.02217 5.37702 6.24849L4.299 7.057C3.98613 7.29165 3.84778 7.69749 3.9823 8.06472C4.9918 10.8205 7.17949 13.0082 9.93529 14.0177C10.3025 14.1522 10.7083 14.0139 10.943 13.701L11.7515 12.623C11.9778 12.3212 12.363 12.1845 12.7289 12.276L16.4149 13.1975C16.8322 13.3018 17.125 13.6768 17.125 14.107V15.25C17.125 16.2855 16.2855 17.125 15.25 17.125H13.375Z" stroke="currentColor" stroke-width="1.5" stroke-linecap="round" stroke-linejoin="round"/>
</svg>
