<svg width="24" height="25" viewBox="0 0 24 25" fill="none" xmlns="http://www.w3.org/2000/svg">
<path d="M16.5 6.72021V7.47021M16.5 10.4702V11.2202M16.5 14.2202V14.9702M16.5 17.9702V18.7202M7.5 13.4702H12.75M7.5 15.7202H10.5M3.375 5.97021C2.75368 5.97021 2.25 6.47389 2.25 7.09521V10.1216C3.1467 10.6403 3.75 11.6098 3.75 12.7202C3.75 13.8306 3.1467 14.8002 2.25 15.3189V18.3452C2.25 18.9665 2.75368 19.4702 3.375 19.4702H20.625C21.2463 19.4702 21.75 18.9665 21.75 18.3452V15.3189C20.8533 14.8002 20.25 13.8306 20.25 12.7202C20.25 11.6098 20.8533 10.6403 21.75 10.1216V7.09521C21.75 6.47389 21.2463 5.97021 20.625 5.97021H3.375Z" stroke="#4967BF" stroke-width="1.5" stroke-linecap="round" stroke-linejoin="round"/>
</svg>
