<svg width="24" height="18" viewBox="0 0 24 18" fill="none" xmlns="http://www.w3.org/2000/svg">
<path d="M23.5055 2.98633C23.229 1.95739 22.4183 1.14629 21.3903 0.86923C19.5122 0.35498 11.9997 0.35498 11.9997 0.35498C11.9997 0.35498 4.48756 0.35498 2.60948 0.849733C1.60122 1.1265 0.770802 1.95754 0.494239 2.98633C0 4.86566 0 8.76314 0 8.76314C0 8.76314 0 12.6803 0.494239 14.54C0.771095 15.5687 1.58145 16.3798 2.60962 16.6569C4.50733 17.1713 12 17.1713 12 17.1713C12 17.1713 19.5122 17.1713 21.3903 16.6766C22.4185 16.3996 23.229 15.5885 23.5058 14.5597C23.9999 12.6803 23.9999 8.78293 23.9999 8.78293C23.9999 8.78293 24.0197 4.86566 23.5055 2.98633ZM9.60793 12.3638V5.16251L15.8549 8.76314L9.60793 12.3638Z" fill="currentColor"/>
</svg>
