<svg width="64" height="64" viewBox="0 0 64 64" fill="none" xmlns="http://www.w3.org/2000/svg">
<g clip-path="url(#clip0_59_6887)">
<path d="M48 19H53.25C56.3516 19 58.875 16.4766 58.875 13.375V11.4414C61.1975 10.6569 62.875 8.45887 62.875 5.875C62.875 2.6355 60.2395 0 57 0C53.7605 0 51.125 2.6355 51.125 5.875C51.125 8.45887 52.8025 10.6569 55.125 11.4414V13.375C55.125 14.4089 54.2839 15.25 53.25 15.25H48C46.9645 15.25 46.125 16.0895 46.125 17.125C46.125 18.1605 46.9645 19 48 19ZM57 3.75C58.1718 3.75 59.125 4.70325 59.125 5.875C59.125 7.04675 58.1718 8 57 8C55.8282 8 54.875 7.04675 54.875 5.875C54.875 4.70325 55.8282 3.75 57 3.75Z" fill="#516278"/>
<path d="M58.125 21.125C55.5411 21.125 53.3431 22.8025 52.5586 25.125H47.875C46.8395 25.125 46 25.9645 46 27C46 28.0355 46.8395 28.875 47.875 28.875H52.5586C53.3431 31.1975 55.5411 32.875 58.125 32.875C61.3645 32.875 64 30.2395 64 27C64 23.7605 61.3645 21.125 58.125 21.125ZM58.125 29.125C56.9532 29.125 56 28.1718 56 27C56 25.8282 56.9532 24.875 58.125 24.875C59.2968 24.875 60.25 25.8282 60.25 27C60.25 28.1718 59.2968 29.125 58.125 29.125Z" fill="#516278"/>
<path d="M49.145 10.62L38.145 0.495C37.7988 0.1775 37.345 0 36.875 0H1.875C0.84 0 0 0.84 0 1.875V62.125C0 63.16 0.84 64 1.875 64H47.875C48.91 64 49.75 63.16 49.75 62.125V12C49.75 11.4862 49.5387 10.9825 49.145 10.62Z" fill="#ECEFF2"/>
<path d="M49.75 12V62.125C49.75 63.16 48.91 64 47.875 64H24.875V0H36.875C37.345 0 37.7988 0.1775 38.145 0.495L49.145 10.62C49.5387 10.9825 49.75 11.4862 49.75 12Z" fill="#D6D6F2"/>
<path d="M49.145 10.62L38.145 0.495C37.7988 0.1775 37.345 0 36.875 0V10.125C36.875 11.16 37.715 12 38.75 12H49.75C49.75 11.4862 49.5388 10.9825 49.145 10.62Z" fill="#A9C2E7"/>
<path d="M28.7499 45.875C27.7144 45.875 26.8749 45.0355 26.8749 44V37.8714C26.1428 37.9184 25.421 37.535 25.0729 36.8385C24.6098 35.9124 24.9851 34.786 25.9114 34.323L27.9114 33.323C28.4928 33.0323 29.1829 33.0634 29.7356 33.405C30.2885 33.7467 30.6249 34.3503 30.6249 35V44C30.6249 45.0355 29.7854 45.875 28.7499 45.875Z" fill="#4967BF"/>
<path d="M37.4999 45.875C36.4644 45.875 35.6249 45.0355 35.6249 44V37.8714C34.8939 37.9184 34.171 37.535 33.8229 36.8385C33.3598 35.9124 33.7351 34.786 34.6614 34.323L36.6614 33.323C37.2428 33.0323 37.9328 33.0634 38.4856 33.405C39.0385 33.7467 39.3749 34.3503 39.3749 35V44C39.3749 45.0355 38.5354 45.875 37.4999 45.875Z" fill="#4967BF"/>
<path d="M16 45.875C13.0363 45.875 10.625 43.4637 10.625 40.5V38.5C10.625 35.5363 13.0363 33.125 16 33.125C18.9637 33.125 21.375 35.5363 21.375 38.5V40.5C21.375 43.4637 18.9637 45.875 16 45.875ZM16 36.875C15.104 36.875 14.375 37.604 14.375 38.5V40.5C14.375 41.396 15.104 42.125 16 42.125C16.896 42.125 17.625 41.396 17.625 40.5V38.5C17.625 37.604 16.896 36.875 16 36.875Z" fill="#81A3D9"/>
<path d="M37.4999 29.875C36.4644 29.875 35.6249 29.0355 35.6249 28V21.8714C34.8939 21.9193 34.171 21.535 33.8229 20.8385C33.3598 19.9124 33.7351 18.786 34.6614 18.323L36.6614 17.323C37.2428 17.0324 37.9328 17.0633 38.4856 17.405C39.0385 17.7467 39.3749 18.3503 39.3749 19V28C39.3749 29.0355 38.5354 29.875 37.4999 29.875Z" fill="#4967BF"/>
<path d="M25 17.125C24.9587 17.125 24.9163 17.125 24.875 17.1262C21.9688 17.1925 19.625 19.5775 19.625 22.5V24.5C19.625 27.4225 21.9688 29.8075 24.875 29.8738C24.9163 29.875 24.9587 29.875 25 29.875C27.9637 29.875 30.375 27.4637 30.375 24.5V22.5C30.375 19.5363 27.9637 17.125 25 17.125ZM26.625 24.5C26.625 25.3962 25.8962 26.125 25 26.125C24.9575 26.125 24.9163 26.1238 24.875 26.12C24.0375 26.0563 23.375 25.3538 23.375 24.5V22.5C23.375 21.6462 24.0375 20.9438 24.875 20.8813C24.9163 20.8763 24.9575 20.875 25 20.875C25.8962 20.875 26.625 21.6038 26.625 22.5V24.5Z" fill="#81A3D9"/>
<path d="M30.375 22.5V24.5C30.375 27.4637 27.9637 29.875 25 29.875C24.9587 29.875 24.9163 29.875 24.875 29.8738V26.12C24.9163 26.1238 24.9575 26.125 25 26.125C25.8963 26.125 26.625 25.3962 26.625 24.5V22.5C26.625 21.6038 25.8963 20.875 25 20.875C24.9575 20.875 24.9163 20.8763 24.875 20.8813V17.1262C24.9163 17.125 24.9587 17.125 25 17.125C27.9637 17.125 30.375 19.5363 30.375 22.5Z" fill="#4967BF"/>
<path d="M14.4999 29.875C13.4644 29.875 12.6249 29.0355 12.6249 28V21.8714C11.8925 21.9193 11.1709 21.535 10.8229 20.8385C10.3598 19.9124 10.7351 18.786 11.6614 18.323L13.6614 17.323C14.2428 17.0324 14.9328 17.0633 15.4856 17.405C16.0385 17.7467 16.3749 18.3503 16.3749 19V28C16.3749 29.0355 15.5354 29.875 14.4999 29.875Z" fill="#81A3D9"/>
<path d="M20.5 13.75H12.5C11.4645 13.75 10.625 12.9105 10.625 11.875C10.625 10.8395 11.4645 10 12.5 10H20.5C21.5355 10 22.375 10.8395 22.375 11.875C22.375 12.9105 21.5355 13.75 20.5 13.75Z" fill="#667A91"/>
<path d="M63.9999 47C63.9999 47.0588 63.9999 47.1175 63.9987 47.1763C63.9049 52.6488 59.4737 57 53.9999 57C49.8999 57 46.3762 54.5312 44.8337 51H42.6937C42.2462 51 41.8137 51.16 41.4737 51.4512L39.7199 52.9538C39.0174 53.5563 37.9824 53.5563 37.2799 52.9538L36.3187 52.13C35.5749 51.4925 34.4649 51.535 33.7724 52.2275L33.3762 52.6237C32.6237 53.3762 31.3987 53.3525 30.6762 52.5737L26.8737 48.4787C26.4862 48.0625 26.3262 47.52 26.3837 47C26.4349 46.5238 26.6687 46.065 27.0762 45.7388L29.9862 43.4113C30.3187 43.145 30.7324 43 31.1574 43H44.8337C46.3762 39.4688 49.8999 37 53.9999 37C59.5224 37 63.9999 41.4775 63.9999 47Z" fill="#FFBF1E"/>
<path d="M63.9999 47C63.9999 47.0587 63.9999 47.1175 63.9987 47.1763C63.9049 52.6488 59.4737 57 53.9999 57C49.8999 57 46.3762 54.5312 44.8337 51H42.6937C42.2462 51 41.8137 51.16 41.4737 51.4512L39.7199 52.9538C39.0174 53.5563 37.9824 53.5563 37.2799 52.9538L36.3187 52.13C35.5749 51.4925 34.4649 51.535 33.7724 52.2275L33.3762 52.6237C32.6237 53.3762 31.3987 53.3525 30.6762 52.5737L26.8737 48.4787C26.4862 48.0625 26.3262 47.52 26.3837 47H63.9999Z" fill="#FC9C04"/>
<path d="M56.875 45.125C55.8388 45.125 54.9988 45.965 54.9988 47C54.9988 48.035 55.8388 48.875 56.875 48.875C57.91 48.875 58.75 48.035 58.75 47C58.75 45.965 57.91 45.125 56.875 45.125Z" fill="#FC9C04"/>
<path d="M58.75 47C58.75 48.035 57.91 48.875 56.875 48.875C55.8388 48.875 54.9988 48.035 54.9988 47H58.75Z" fill="#EF7C00"/>
</g>
<defs>
<clipPath id="clip0_59_6887">
<rect width="64" height="64" fill="white"/>
</clipPath>
</defs>
</svg>
