<svg width="64" height="64" viewBox="0 0 64 64" fill="none" xmlns="http://www.w3.org/2000/svg">
<path d="M62.125 9.5H1.875C0.824875 9.5 0 10.3249 0 11.375V47L4.34987 50.75H60.2875L64 47V11.375C64 10.3249 63.1751 9.5 62.125 9.5Z" fill="#A9C2E7"/>
<path d="M64 11.375V47L60.2875 50.75H32V9.5H62.125C63.1751 9.5 64 10.3249 64 11.375Z" fill="#81A3D9"/>
<path d="M17 24.5C15.9636 24.5 15.125 23.6614 15.125 22.625V18.875C15.125 17.8386 15.9636 17 17 17C18.0364 17 18.875 17.8386 18.875 18.875V22.625C18.875 23.6614 18.0364 24.5 17 24.5Z" fill="#81A3D9"/>
<path d="M24.5 24.5C23.4636 24.5 22.625 23.6614 22.625 22.625V18.875C22.625 17.8386 23.4636 17 24.5 17C25.5364 17 26.375 17.8386 26.375 18.875V22.625C26.375 23.6614 25.5364 24.5 24.5 24.5Z" fill="#81A3D9"/>
<path d="M39.5 39.5C38.4636 39.5 37.625 38.6614 37.625 37.625V18.875C37.625 17.8386 38.4636 17 39.5 17C40.5364 17 41.375 17.8386 41.375 18.875V37.625C41.375 38.6614 40.5364 39.5 39.5 39.5Z" fill="#6386CE"/>
<path d="M33.875 18.875V22.625C33.875 23.6749 33.0501 24.5 32 24.5C30.9499 24.5 30.125 23.6749 30.125 22.625V18.875C30.125 17.8249 30.9499 17 32 17C33.0501 17 33.875 17.8249 33.875 18.875Z" fill="#81A3D9"/>
<path d="M54.5 50.75H47C45.9636 50.75 45.125 49.9114 45.125 48.875V30.125C45.125 29.0886 45.9636 28.25 47 28.25H54.5C55.5364 28.25 56.375 29.0886 56.375 30.125V48.875C56.375 49.9114 55.5364 50.75 54.5 50.75Z" fill="#667A91"/>
<path d="M47 24.5C45.9636 24.5 45.125 23.6614 45.125 22.625V18.875C45.125 17.8386 45.9636 17 47 17C48.0364 17 48.875 17.8386 48.875 18.875V22.625C48.875 23.6614 48.0364 24.5 47 24.5Z" fill="#6386CE"/>
<path d="M54.5 24.5C53.4636 24.5 52.625 23.6614 52.625 22.625V18.875C52.625 17.8386 53.4636 17 54.5 17C55.5364 17 56.375 17.8386 56.375 18.875V22.625C56.375 23.6614 55.5364 24.5 54.5 24.5Z" fill="#6386CE"/>
<path d="M9.5 39.5C8.46362 39.5 7.625 38.6614 7.625 37.625V18.875C7.625 17.8386 8.46362 17 9.5 17C10.5364 17 11.375 17.8386 11.375 18.875V37.625C11.375 38.6614 10.5364 39.5 9.5 39.5Z" fill="#81A3D9"/>
<path d="M32 28.25H17C15.9499 28.25 15.125 29.0749 15.125 30.125V37.625C15.125 38.6749 15.9499 39.5 17 39.5H32C33.0501 39.5 33.875 38.6749 33.875 37.625V30.125C33.875 29.0749 33.0501 28.25 32 28.25Z" fill="#81A3D9"/>
<path d="M48.875 32H52.625V50.75H48.875V32Z" fill="#F2F5FC"/>
<path d="M32 39.5V28.25C33.0501 28.25 33.875 29.0749 33.875 30.125V37.625C33.875 38.6749 33.0501 39.5 32 39.5Z" fill="#6386CE"/>
<path d="M64 47V52.625C64 53.6749 63.1751 54.5 62.125 54.5H1.875C0.824875 54.5 0 53.6749 0 52.625V47H64Z" fill="#FFBF1E"/>
<path d="M64 47V52.625C64 53.6749 63.1751 54.5 62.125 54.5H32V47H64Z" fill="#FC9C04"/>
<path d="M32 24.5V17C33.0501 17 33.875 17.8249 33.875 18.875V22.625C33.875 23.6749 33.0501 24.5 32 24.5Z" fill="#6386CE"/>
<path d="M18.875 32H22.625V35.75H18.875V32Z" fill="#F6F7F9"/>
<path d="M26.375 32H30.125V35.75H26.375V32Z" fill="#F6F7F9"/>
</svg>
