<svg width="64" height="64" viewBox="0 0 64 64" fill="none" xmlns="http://www.w3.org/2000/svg">
<path d="M56.9062 64C55.8707 64 55.0312 63.1605 55.0312 62.125V46.375C55.0312 45.3395 55.8707 44.5 56.9062 44.5C57.9418 44.5 58.7812 45.3395 58.7812 46.375V62.125C58.7812 63.1605 57.9418 64 56.9062 64Z" fill="#ECEFF2"/>
<path d="M62.0938 44.5C62.0938 45.9125 60.9437 47.0625 59.5312 47.0625H27.8438V41.9375H59.5312C60.9437 41.9375 62.0938 43.0875 62.0938 44.5Z" fill="#FFBF1E"/>
<path d="M62.0938 44.5C62.0938 45.9125 60.9437 47.0625 59.5312 47.0625H27.8438V44.5H62.0938Z" fill="#FC9C04"/>
<path d="M51.2662 41.9375C50.055 45.5216 51.3777 41.6079 49.5337 47.0625H45.5762C45.581 47.0483 47.0585 42.6706 47.3074 41.9375H51.2662Z" fill="white"/>
<path d="M50.3999 44.5L49.5337 47.0625H45.5762L46.4412 44.5H50.3999Z" fill="#ECEFF2"/>
<path d="M40.2662 41.9375C39.055 45.5216 40.3777 41.6079 38.5337 47.0625H34.5762C34.581 47.0483 36.0585 42.6706 36.3074 41.9375H40.2662Z" fill="white"/>
<path d="M39.3999 44.5L38.5337 47.0625H34.5762L35.4412 44.5H39.3999Z" fill="#ECEFF2"/>
<path d="M27.7812 32V62.125C27.7812 63.16 26.9412 63.375 25.9062 63.375H11.9062C10.8713 63.375 10.0312 63.16 10.0312 62.125V32C10.0312 30.965 10.8713 30.125 11.9062 30.125H25.9062C26.9412 30.125 27.7812 30.965 27.7812 32Z" fill="#667A91"/>
<path d="M27.7812 32V62.125C27.7812 63.16 26.9412 63.25 25.9062 63.25H18.9062V30.125H25.9062C26.9412 30.125 27.7812 30.965 27.7812 32Z" fill="#516278"/>
<path d="M33.7812 62.125C33.7812 63.16 32.9412 64 31.9062 64H5.90625C4.87125 64 4.03125 63.16 4.03125 62.125C4.03125 61.09 4.87125 60.25 5.90625 60.25H31.9062C32.9412 60.25 33.7812 61.09 33.7812 62.125Z" fill="#ECEFF2"/>
<path d="M33.7812 62.125C33.7812 63.16 32.9412 64 31.9062 64H18.9062V60.25H31.9062C32.9412 60.25 33.7812 61.09 33.7812 62.125Z" fill="#B0BBC9"/>
<path d="M35.7812 5.625V28.25C35.7812 31.3512 33.2575 33.875 30.1562 33.875H7.53125C4.43 33.875 1.90625 31.3512 1.90625 28.25V5.625C1.90625 2.52375 4.43 0 7.53125 0H30.1562C33.2575 0 35.7812 2.52375 35.7812 5.625Z" fill="#81A3D9"/>
<path d="M35.875 5.625V28.25C35.875 31.3512 33.3512 33.875 30.25 33.875H19V0H30.25C33.3512 0 35.875 2.52375 35.875 5.625Z" fill="#6386CE"/>
<path d="M19.9063 7.96504C19.2388 7.84691 19.2431 7.87629 14.9063 7.87629C14.5712 7.87629 14.2111 7.96929 13.8888 8.17754C13.8251 8.21404 13.6374 8.35716 13.5563 8.45254C13.3319 8.67654 13.1339 9.02004 13.0576 9.44879C13.0203 9.68091 13.0313 8.56966 13.0313 24C13.0313 25.035 13.8713 25.875 14.9063 25.875C15.9413 25.875 16.7813 25.035 16.7813 24V19.675C17.5563 19.6713 18.3888 19.6675 18.8738 19.6675C22.1513 19.6675 24.8488 17.0397 24.8488 13.7725C24.8488 10.8688 22.7113 8.44879 19.9063 7.96504ZM19.9063 15.6638C19.5802 15.8323 19.2281 15.9175 18.8738 15.9175C18.3901 15.9175 17.5676 15.9213 16.7988 15.925C16.7876 13.5624 16.7949 14.5017 16.7863 11.6263H18.8738C19.2293 11.6263 19.5813 11.7122 19.9063 11.88C21.4926 12.7042 21.4922 14.8399 19.9063 15.6638Z" fill="#FFBF1E"/>
<path d="M24.8487 13.7727C24.8487 16.9805 22.2254 19.6437 18.9062 19.6677V15.9165C19.2637 15.9127 19.6037 15.8202 19.9062 15.664C21.4925 14.8398 21.4921 12.7041 19.9062 11.8802C19.6037 11.724 19.2637 11.6315 18.9062 11.6277V7.87646C22.2349 7.90084 24.8487 10.5727 24.8487 13.7727Z" fill="#FC9C04"/>
</svg>
