<svg width="64" height="64" viewBox="0 0 64 64" fill="none" xmlns="http://www.w3.org/2000/svg">
<path d="M45.938 49.2263L40.6499 43.9382C39.92 43.2083 39.9138 42.0229 40.6535 41.2832L45.9783 35.9951C46.7144 35.2699 47.8973 35.2699 48.626 35.9987L53.9141 41.2868C54.644 42.0167 54.6503 43.2021 53.9105 43.9418L48.5858 49.2299C47.8511 49.9572 46.6704 49.9588 45.938 49.2263Z" fill="#6387CE"/>
<path d="M40.6536 41.2837C39.9138 42.0235 39.9199 43.2088 40.6499 43.9387L45.9381 49.2268C46.6704 49.9592 47.8513 49.9577 48.5858 49.2305L51.2482 46.5865L43.3087 38.647L40.6536 41.2837Z" fill="#4967BF"/>
<path d="M17 52.75H9.375C8.33862 52.75 7.5 51.9114 7.5 50.875C7.5 49.8386 8.33862 49 9.375 49H17C18.0364 49 18.875 49.8386 18.875 50.875C18.875 51.9114 18.0364 52.75 17 52.75Z" fill="#E2EAF7"/>
<path d="M20.75 49C19.7136 49 18.875 48.1614 18.875 47.125V32C18.875 30.9636 19.7136 30.125 20.75 30.125C21.7864 30.125 22.625 30.9636 22.625 32V47.125C22.625 48.1614 21.7864 49 20.75 49Z" fill="#E2EAF7"/>
<path d="M59.2021 35.9627C58.7849 35.547 51.4056 28.1947 51.8001 28.5877L14.1371 9.47559L8.825 14.7877C6.61237 16.9628 6.61237 20.5253 8.825 22.7002L32.7125 46.5878C34.8881 48.8386 38.5425 48.7421 40.625 46.5878L52.5749 34.638L56.5507 38.6141C57.2831 39.3465 58.4696 39.3466 59.2021 38.6141C59.9346 37.8817 59.9346 36.6952 59.2021 35.9627Z" fill="#D5DBE2"/>
<path d="M8.825 22.7002L32.7125 46.5878C34.8881 48.8386 38.5425 48.7422 40.625 46.5878L45.9372 41.2756L14.1372 9.47559L8.825 14.7877C6.61237 16.9628 6.61237 20.5253 8.825 22.7002Z" fill="#ECEFF2"/>
<path d="M34.8026 28.5875H51.8001L48.0501 24.8375L27.35 4.17491C25.1748 1.96253 21.6123 1.96253 19.4375 4.17491L14.137 9.47541L32.1508 27.4892C32.8542 28.1925 33.8081 28.5875 34.8026 28.5875Z" fill="#6387CE"/>
<path d="M36.6599 39.1782C37.6954 39.1782 38.5349 38.3388 38.5349 37.3032C38.5349 36.2677 37.6954 35.4282 36.6599 35.4282C35.6244 35.4282 34.7849 36.2677 34.7849 37.3032C34.7849 38.3388 35.6244 39.1782 36.6599 39.1782Z" fill="#FFBF1E"/>
<path d="M5.625 64H1.875C0.838625 64 0 63.1614 0 62.125V39.625C0 38.5886 0.838625 37.75 1.875 37.75H5.625C8.72675 37.75 11.25 40.2733 11.25 43.375V58.375C11.25 61.4767 8.72675 64 5.625 64Z" fill="#6387CE"/>
<path d="M51.5232 18.75C52.5587 18.75 53.3982 17.9105 53.3982 16.875C53.3982 15.8395 52.5587 15 51.5232 15C50.4877 15 49.6482 15.8395 49.6482 16.875C49.6482 17.9105 50.4877 18.75 51.5232 18.75Z" fill="#EF7C00"/>
<path d="M60.7993 7.59888C55.8334 2.633 47.2129 2.633 42.247 7.59888C41.5147 8.33125 40.328 8.33125 39.5957 7.59888C38.8633 6.8665 38.8633 5.67988 39.5957 4.9475C42.7853 1.75775 47.0224 0 51.5232 0C56.0239 0 60.2609 1.75775 63.4507 4.9475C64.183 5.67988 64.183 6.8665 63.4507 7.59888C62.7182 8.33125 61.5317 8.33138 60.7993 7.59888Z" fill="#EF7C00"/>
<path d="M55.4967 12.8979C53.3799 10.7739 49.6666 10.7739 47.5499 12.8979C46.8176 13.6302 45.6273 13.6266 44.8949 12.9015C44.1626 12.1691 44.1626 10.9825 44.8913 10.2465C48.429 6.70886 54.6178 6.70886 58.1555 10.2465C58.8842 10.9826 58.8842 12.1691 58.1518 12.9015C57.4098 13.636 56.2218 13.623 55.4967 12.8979Z" fill="#EF7C00"/>
<path d="M20.75 56.5C17.6483 56.5 15.125 53.9767 15.125 50.875C15.125 47.7733 17.6483 45.25 20.75 45.25C23.8517 45.25 26.375 47.7733 26.375 50.875C26.375 53.9767 23.8517 56.5 20.75 56.5Z" fill="#6387CE"/>
<path d="M36.6599 39.1782C37.6954 39.1782 38.5349 38.3388 38.5349 37.3032C38.5349 36.2677 37.6954 35.4282 36.6599 35.4282C35.6244 35.4282 34.7849 36.2677 34.7849 37.3032C34.7849 38.3388 35.6244 39.1782 36.6599 39.1782Z" fill="#FFBF1E"/>
</svg>
